<?xml version="1.0" encoding="UTF-8" standalone="no"?>
<!DOCTYPE svg PUBLIC "-//W3C//DTD SVG 1.1//EN"
 "http://www.w3.org/Graphics/SVG/1.1/DTD/svg11.dtd">
<!-- Generated by graphviz version 2.32.0 (20130801.1845)
 -->
<!-- Title: hpc Pages: 1 -->
<svg width="142pt" height="160pt"
 viewBox="0.00 0.00 142.00 160.00" xmlns="http://www.w3.org/2000/svg" xmlns:xlink="http://www.w3.org/1999/xlink">
<g id="graph0" class="graph" transform="scale(1 1) rotate(0) translate(4 156)">
<title>hpc</title>
<polygon fill="white" stroke="white" points="-4,5 -4,-156 139,-156 139,5 -4,5"/>
<!-- wrapUpload -->
<g id="node1" class="node"><title>wrapUpload</title>
<polygon fill="none" stroke="black" points="11,-123 11,-144 124,-144 124,-123 11,-123"/>
<text text-anchor="start" x="14.5" y="-130.3" font-family="Times,serif" font-size="14.00"> </text>
<text text-anchor="start" x="18.5" y="-130.3" font-family="Times,serif" font-weight="bold" font-size="14.00"> wrapUpload.py </text>
<text text-anchor="start" x="116.5" y="-130.3" font-family="Times,serif" font-size="14.00"> </text>
<polygon fill="none" stroke="black" points="11,-101 11,-121 124,-121 124,-101 11,-101"/>
<text text-anchor="start" x="37.5" y="-107.8" font-family="Times,serif" font-size="14.00"> Find files </text>
<polygon fill="none" stroke="black" points="11,-79 11,-99 124,-99 124,-79 11,-79"/>
<text text-anchor="start" x="38.5" y="-85.8" font-family="Times,serif" font-size="14.00"> Issue scp </text>
<polygon fill="black" stroke="black" points="8,-122 8,-122 127,-122 127,-122 8,-122"/>
<polygon fill="none" stroke="black" points="7.5,-76.5 7.5,-147.5 126.5,-147.5 126.5,-76.5 7.5,-76.5"/>
</g>
<!-- database -->
<g id="node2" class="node"><title>database</title>
<g id="a_node2"><a xlink:href="gv.database.svg" xlink:title="Database">
<ellipse fill="none" stroke="black" cx="68" cy="-18" rx="42.3456" ry="18"/>
<text text-anchor="middle" x="68" y="-14.3" font-family="Times,serif" font-size="14.00">Database</text>
</a>
</g>
</g>
<!-- wrapUpload&#45;&gt;database -->
<g id="edge1" class="edge"><title>wrapUpload:scpPort&#45;&gt;database</title>
<path fill="none" stroke="black" d="M68,-78C68,-67.6193 68,-56.2112 68,-46.2161"/>
<polygon fill="black" stroke="black" points="71.5001,-46.0402 68,-36.0402 64.5001,-46.0403 71.5001,-46.0402"/>
</g>
</g>
</svg>
