<?xml version="1.0" encoding="UTF-8" standalone="no"?>
<!DOCTYPE svg PUBLIC "-//W3C//DTD SVG 1.1//EN"
 "http://www.w3.org/Graphics/SVG/1.1/DTD/svg11.dtd">
<!-- Generated by graphviz version 2.32.0 (20130801.1845)
 -->
<!-- Title: nrelmat Pages: 1 -->
<svg width="162pt" height="316pt"
 viewBox="0.00 0.00 162.00 316.00" xmlns="http://www.w3.org/2000/svg" xmlns:xlink="http://www.w3.org/1999/xlink">
<g id="graph0" class="graph" transform="scale(1 1) rotate(0) translate(4 312)">
<title>nrelmat</title>
<polygon fill="white" stroke="white" points="-4,5 -4,-312 159,-312 159,5 -4,5"/>
<!-- hpc -->
<g id="node1" class="node"><title>hpc</title>
<g id="a_node1"><a xlink:href="gv.hpc.svg" xlink:title="HPC">
<ellipse fill="none" stroke="black" cx="95" cy="-290" rx="27.4223" ry="18"/>
<text text-anchor="middle" x="95" y="-286.3" font-family="Times,serif" font-size="14.00">HPC</text>
</a>
</g>
</g>
<!-- archive -->
<g id="node2" class="node"><title>archive</title>
<g id="a_node2"><a xlink:href="gv.archive.svg" xlink:title="Archive\nServer">
<ellipse fill="none" stroke="black" cx="95" cy="-193" rx="42.1401" ry="26.7407"/>
<text text-anchor="middle" x="95" y="-196.8" font-family="Times,serif" font-size="14.00">Archive</text>
<text text-anchor="middle" x="95" y="-181.8" font-family="Times,serif" font-size="14.00">Server</text>
</a>
</g>
</g>
<!-- hpc&#45;&gt;archive -->
<g id="edge1" class="edge"><title>hpc&#45;&gt;archive</title>
<path fill="none" stroke="black" d="M95,-271.576C95,-259.938 95,-244.208 95,-229.954"/>
<polygon fill="black" stroke="black" points="98.5001,-229.916 95,-219.916 91.5001,-229.916 98.5001,-229.916"/>
<text text-anchor="middle" x="124.5" y="-242.3" font-family="Times,serif" font-size="14.00">scp upload</text>
</g>
<!-- database -->
<g id="node3" class="node"><title>database</title>
<g id="a_node3"><a xlink:href="gv.database.svg" xlink:title="Database">
<ellipse fill="none" stroke="black" cx="42" cy="-110" rx="42.3456" ry="18"/>
<text text-anchor="middle" x="42" y="-106.3" font-family="Times,serif" font-size="14.00">Database</text>
</a>
</g>
</g>
<!-- archive&#45;&gt;database -->
<g id="edge2" class="edge"><title>archive&#45;&gt;database</title>
<path fill="none" stroke="black" d="M79.0983,-167.697C72.6551,-157.85 65.2111,-146.474 58.69,-136.507"/>
<polygon fill="black" stroke="black" points="61.4199,-134.287 53.0158,-127.836 55.5624,-138.12 61.4199,-134.287"/>
</g>
<!-- web -->
<g id="node4" class="node"><title>web</title>
<g id="a_node4"><a xlink:href="gv.web.svg" xlink:title="Web\nServer">
<ellipse fill="none" stroke="black" cx="89" cy="-27" rx="36.1582" ry="26.7407"/>
<text text-anchor="middle" x="89" y="-30.8" font-family="Times,serif" font-size="14.00">Web</text>
<text text-anchor="middle" x="89" y="-15.8" font-family="Times,serif" font-size="14.00">Server</text>
</a>
</g>
</g>
<!-- archive&#45;&gt;web -->
<g id="edge3" class="edge"><title>archive&#45;&gt;web</title>
<path fill="none" stroke="black" d="M94.7831,-166.091C94.5411,-145.898 94.0373,-117.157 93,-92 92.6308,-83.0457 92.0983,-73.3945 91.5416,-64.37"/>
<polygon fill="black" stroke="black" points="95.0187,-63.8986 90.8855,-54.1432 88.033,-64.3469 95.0187,-63.8986"/>
</g>
<!-- database&#45;&gt;web -->
<g id="edge4" class="edge"><title>database&#45;&gt;web</title>
<path fill="none" stroke="black" d="M51.7384,-92.2167C56.99,-83.1662 63.6572,-71.6759 69.8958,-60.9243"/>
<polygon fill="black" stroke="black" points="73.0034,-62.5424 74.9949,-52.1364 66.9488,-59.0292 73.0034,-62.5424"/>
</g>
</g>
</svg>
